<?xml version="1.0" encoding="utf-8"?>
<!-- Uploaded to: SVG Repo, www.svgrepo.com, Generator: SVG Repo Mixer Tools -->
<svg width="800px" height="800px" viewBox="0 0 1024 1024" fill="#000000" class="icon"  version="1.1" xmlns="http://www.w3.org/2000/svg"><path d="M961.094 190.992c-17.138 0-40.368-4.882-63.738-13.388-35.882-13.05-63.626-31.266-70.672-46.412-2.812-6.044-2.124-10.818-1.062-13.754 3.218-8.858 13.262-13.35 29.838-13.35 17.152 0 40.38 4.882 63.768 13.404 20.778 7.552 39.524 17.152 52.786 27.034 16.184 12.05 22.558 23.19 18.95 33.094-3.22 8.872-13.28 13.372-29.87 13.372z m-105.636-70.908c-10.436 0-14.31 2.18-14.874 2.938-0.282 4.376 18.262 23.558 62.238 39.554 21.682 7.888 42.928 12.42 58.27 12.42 10.45 0 14.34-2.188 14.886-2.954 0.296-4.368-18.262-23.536-62.222-39.524-21.712-7.902-42.958-12.434-58.298-12.434zM911.26 287.692a9.4 9.4 0 0 1-1.032-0.062c-14.764-1.906-31.51-6.164-48.444-12.326-16.856-6.116-32.414-13.592-44.944-21.622-3.718-2.382-4.782-7.326-2.406-11.052 2.376-3.732 7.294-4.81 11.06-2.412 11.53 7.396 25.962 14.332 41.742 20.048 15.856 5.774 31.43 9.74 45.022 11.49a8.008 8.008 0 0 1 6.92 8.958 7.99 7.99 0 0 1-7.918 6.978z" fill="" /><path d="M731.282 408.026c-0.906 0-1.828-0.156-2.734-0.484a7.988 7.988 0 0 1-4.78-10.248l101.854-279.848a8 8 0 0 1 10.248-4.782 7.99 7.99 0 0 1 4.78 10.248L738.794 402.76a8 8 0 0 1-7.512 5.266zM901.512 408.042c-0.906 0-1.844-0.156-2.734-0.484a7.99 7.99 0 0 1-4.782-10.248l81.938-225.156c1.5-4.156 6.108-6.28 10.248-4.782a7.99 7.99 0 0 1 4.78 10.248l-81.936 225.156a7.988 7.988 0 0 1-7.514 5.266zM766.29 405.728a7.99 7.99 0 0 1-7.514-10.732l54.864-150.782a8.02 8.02 0 0 1 10.248-4.78 7.988 7.988 0 0 1 4.782 10.248l-54.866 150.782a7.99 7.99 0 0 1-7.514 5.264zM867.442 408.042c-0.906 0-1.828-0.156-2.734-0.484a7.988 7.988 0 0 1-4.782-10.248l43.804-120.35c1.5-4.148 6.108-6.274 10.246-4.782a7.99 7.99 0 0 1 4.782 10.248l-43.802 120.35a8.006 8.006 0 0 1-7.514 5.266zM951.906 488.008H8.104c-4.422 0-8-3.576-8-7.998V432.02a7.994 7.994 0 0 1 8-7.998h415.914c4.42 0 8 3.578 8 7.998a7.994 7.994 0 0 1-8 7.998H16.102v31.994h927.806v-31.994H535.992a7.992 7.992 0 0 1-7.996-7.998 7.992 7.992 0 0 1 7.996-7.998h415.914c4.422 0 8 3.578 8 7.998v47.99a7.994 7.994 0 0 1-8 7.998z" fill="" /><path d="M823.934 951.912H136.078a7.992 7.992 0 0 1-7.834-6.374l-95.98-463.912a8.008 8.008 0 0 1 6.218-9.452c4.272-0.922 8.552 1.882 9.452 6.216l94.66 457.524H817.42l94.652-457.524c0.904-4.334 5.124-7.138 9.466-6.216a8.03 8.03 0 0 1 6.216 9.452l-95.98 463.912a8.004 8.004 0 0 1-7.84 6.374z" fill="" /><path d="M823.934 951.912a7.972 7.972 0 0 1-6.654-3.56 7.988 7.988 0 0 1 2.216-11.092l45.274-30.166 90.886-436.434c0.89-4.318 5.032-7.17 9.466-6.194a7.99 7.99 0 0 1 6.186 9.458L879.75 913.56a7.942 7.942 0 0 1-3.39 5.016l-47.988 31.992a8.03 8.03 0 0 1-4.438 1.344zM480.006 855.934c-17.644 0-31.994-14.342-31.994-31.994V599.984c0-17.636 14.348-31.992 31.994-31.992S512 582.348 512 599.984V823.94c0 17.652-14.348 31.994-31.994 31.994z m0-271.946c-8.818 0-15.998 7.188-15.998 15.996V823.94c0 8.826 7.178 15.996 15.998 15.996s15.998-7.17 15.998-15.996V599.984c-0.002-8.808-7.18-15.996-15.998-15.996zM304.042 855.934c-17.644 0-31.994-14.342-31.994-31.994l-15.974-223.376c-0.024-18.214 14.326-32.57 31.97-32.57s31.994 14.356 31.994 31.992l15.974 223.392c0.024 18.214-14.326 32.556-31.97 32.556z m-15.996-271.946c-8.818 0-15.998 7.188-15.998 15.996l15.974 223.392c0.024 9.388 7.202 16.558 16.02 16.558s15.998-7.17 15.998-15.996l-15.974-223.376c-0.024-9.386-7.202-16.574-16.02-16.574zM655.968 855.934c-17.652 0-31.994-14.342-31.994-31.994l16.03-224.518c-0.032-17.074 14.308-31.43 31.96-31.43s31.994 14.356 31.994 31.992l-16.03 224.534c0.032 17.074-14.306 31.416-31.96 31.416z m15.996-271.946c-8.81 0-15.996 7.188-15.996 15.996l-16.028 224.534c0.032 8.248 7.216 15.418 16.028 15.418s15.996-7.17 15.996-15.996l16.028-224.518c-0.032-8.246-7.216-15.434-16.028-15.434zM8.112 440.018a7.994 7.994 0 0 1-4.446-14.652l47.99-31.994a7.988 7.988 0 0 1 11.092 2.218 7.994 7.994 0 0 1-2.218 11.092L12.54 438.676a8.012 8.012 0 0 1-4.428 1.342zM951.906 440.018a7.97 7.97 0 0 1-6.654-3.56 7.988 7.988 0 0 1 2.218-11.092l47.99-31.994a7.99 7.99 0 0 1 11.092 2.218 7.99 7.99 0 0 1-2.218 11.092l-47.99 31.994a8.04 8.04 0 0 1-4.438 1.342z" fill="" /><path d="M951.906 488.008a7.976 7.976 0 0 1-6.654-3.56 7.988 7.988 0 0 1 2.218-11.092l47.99-31.994a8 8 0 0 1 8.874 13.31l-47.99 31.992a8.024 8.024 0 0 1-4.438 1.344zM999.896 408.026h-15.996a7.994 7.994 0 0 1-7.998-7.998 7.994 7.994 0 0 1 7.998-7.998h15.996a7.992 7.992 0 0 1 7.998 7.998 7.994 7.994 0 0 1-7.998 7.998zM72.09 408.026h-15.998a7.994 7.994 0 0 1-7.998-7.998 7.994 7.994 0 0 1 7.998-7.998h15.998a7.994 7.994 0 0 1 7.998 7.998 7.994 7.994 0 0 1-7.998 7.998z" fill="" /><path d="M999.896 456.016a7.994 7.994 0 0 1-7.998-7.998v-47.99a7.994 7.994 0 0 1 7.998-7.998 7.992 7.992 0 0 1 7.998 7.998v47.99a7.994 7.994 0 0 1-7.998 7.998zM504 464.014a7.994 7.994 0 0 1-7.998-7.998V120.084h-31.994v335.932c0 4.42-3.578 7.998-7.998 7.998s-7.998-3.578-7.998-7.998V112.086a7.994 7.994 0 0 1 7.998-7.998H504a7.994 7.994 0 0 1 7.998 7.998v343.93a7.992 7.992 0 0 1-7.998 7.998zM551.99 376.032a7.992 7.992 0 0 1-7.998-7.998V80.094c0-4.422 3.576-8 7.998-8a7.994 7.994 0 0 1 7.998 8v287.94a7.994 7.994 0 0 1-7.998 7.998z" fill="" /><path d="M504.008 120.084a7.98 7.98 0 0 1-6.662-3.56 7.992 7.992 0 0 1 2.218-11.092l47.988-31.994c3.688-2.458 8.638-1.46 11.092 2.218s1.468 8.638-2.218 11.092l-47.988 31.994a8.008 8.008 0 0 1-4.43 1.342zM456.018 120.084a7.98 7.98 0 0 1-6.662-3.56 7.992 7.992 0 0 1 2.218-11.092l47.99-31.994a7.988 7.988 0 0 1 11.09 2.218 7.992 7.992 0 0 1-2.218 11.092l-47.99 31.994a7.998 7.998 0 0 1-4.428 1.342zM567.986 408.026h-31.994a7.992 7.992 0 0 1-7.996-7.998 7.992 7.992 0 0 1 7.996-7.998h31.994a7.992 7.992 0 0 1 7.998 7.998 7.994 7.994 0 0 1-7.998 7.998zM951.906 408.026a8.02 8.02 0 0 1-4.436-1.344 7.986 7.986 0 0 1-2.218-11.092l63.986-95.98c2.438-3.686 7.39-4.67 11.092-2.216a7.98 7.98 0 0 1 2.218 11.09l-63.986 95.98a7.972 7.972 0 0 1-6.656 3.562z" fill="" /><path d="M1015.894 312.044h-47.99a7.994 7.994 0 0 1-7.998-7.998 7.992 7.992 0 0 1 7.998-7.998h47.99a7.994 7.994 0 0 1 7.998 7.998 7.994 7.994 0 0 1-7.998 7.998zM328.038 408.042c-4.422 0-8-3.578-8-7.998v-87.998H176.07v87.998a7.994 7.994 0 0 1-7.998 7.998c-4.422 0-8-3.578-8-7.998v-95.996a7.994 7.994 0 0 1 8-7.998h159.966a7.994 7.994 0 0 1 7.998 7.998v95.996a7.996 7.996 0 0 1-7.998 7.998zM424.018 408.026h-63.988a7.994 7.994 0 0 1-7.998-7.998 7.994 7.994 0 0 1 7.998-7.998h63.988a7.998 7.998 0 1 1 0 15.996z" fill="" /><path d="M328.046 312.044a7.99 7.99 0 0 1-6.664-3.562l-31.994-47.99a7.99 7.99 0 0 1 2.218-11.09 7.994 7.994 0 0 1 11.09 2.216l31.994 47.99a7.992 7.992 0 0 1-6.644 12.436z" fill="" /><path d="M296.044 264.054H136.078a7.994 7.994 0 0 1-7.998-7.998 7.994 7.994 0 0 1 7.998-7.998h159.966a7.994 7.994 0 0 1 7.998 7.998 7.994 7.994 0 0 1-7.998 7.998z" fill="" /><path d="M168.08 312.044a7.99 7.99 0 0 1-6.664-3.562l-31.992-47.99a7.99 7.99 0 0 1 2.218-11.09 7.99 7.99 0 0 1 11.09 2.216l31.994 47.99a7.992 7.992 0 0 1-6.646 12.436z" fill="" /><path d="M104.076 312.044a7.992 7.992 0 0 1-6.646-12.436l31.994-47.99a7.984 7.984 0 0 1 11.09-2.216 7.992 7.992 0 0 1 2.218 11.09L110.74 308.482a7.99 7.99 0 0 1-6.664 3.562z" fill="" /><path d="M104.084 408.026c-4.42 0-8-3.578-8-7.998v-95.98c0-4.422 3.578-7.998 8-7.998s7.998 3.576 7.998 7.998v95.98a7.994 7.994 0 0 1-7.998 7.998zM136.078 408.026a7.994 7.994 0 0 1-7.998-7.998v-79.984c0-4.42 3.578-7.998 7.998-7.998s7.998 3.578 7.998 7.998v79.984a7.994 7.994 0 0 1-7.998 7.998zM296.044 264.054H136.078a7.994 7.994 0 0 1-7.998-7.998v-31.994a7.994 7.994 0 0 1 7.998-7.998h159.966a7.994 7.994 0 0 1 7.998 7.998v31.994a7.994 7.994 0 0 1-7.998 7.998z m-151.968-15.996h143.97v-15.998H144.076v15.998zM551.99 88.092H504a7.994 7.994 0 0 1-7.998-7.998c0-4.422 3.578-8 7.998-8h47.99a7.994 7.994 0 0 1 7.998 8 7.994 7.994 0 0 1-7.998 7.998zM695.96 408.026c-4.422 0-8-3.578-8-7.998 0-22.05-17.934-39.992-39.99-39.992-22.058 0-39.992 17.942-39.992 39.992a7.994 7.994 0 0 1-7.998 7.998 7.994 7.994 0 0 1-7.998-7.998c0-30.87 25.12-55.988 55.988-55.988s55.988 25.12 55.988 55.988a7.994 7.994 0 0 1-7.998 7.998zM663.966 328.042h-31.994a7.994 7.994 0 0 1-7.998-7.998 7.994 7.994 0 0 1 7.998-7.998h31.994a7.994 7.994 0 0 1 7.998 7.998 7.994 7.994 0 0 1-7.998 7.998z" fill="" /><path d="M631.972 344.04a7.994 7.994 0 0 1-7.998-8v-15.996a7.994 7.994 0 0 1 7.998-7.998c4.422 0 8 3.578 8 7.998v15.996c0 4.42-3.578 8-8 8z" fill="" /><path d="M663.966 344.04a7.994 7.994 0 0 1-7.998-8v-15.996c0-4.42 3.578-7.998 7.998-7.998s7.998 3.578 7.998 7.998v15.996c0 4.42-3.578 8-7.998 8z" fill="" /><path d="M695.96 312.044c-0.5 0-1.032-0.046-1.562-0.156l-79.984-15.996a7.988 7.988 0 0 1-6.28-9.412c0.876-4.336 5.06-7.204 9.404-6.274l79.984 15.998a7.988 7.988 0 0 1 6.28 9.412 7.986 7.986 0 0 1-7.842 6.428z" fill="" /><path d="M615.976 328.042a7.992 7.992 0 0 1-7.998-7.998v-31.992c0-4.422 3.576-8 7.998-8s7.998 3.578 7.998 8v31.992a7.994 7.994 0 0 1-7.998 7.998z" fill="" /><path d="M695.96 328.042h-79.984a7.992 7.992 0 0 1-7.998-7.998 7.994 7.994 0 0 1 7.998-7.998h79.984a7.994 7.994 0 0 1 7.998 7.998 7.994 7.994 0 0 1-7.998 7.998z" fill="" /><path d="M695.96 328.042c-4.422 0-8-3.576-8-7.998v-15.996a7.994 7.994 0 0 1 8-7.998 7.994 7.994 0 0 1 7.998 7.998v15.996a7.994 7.994 0 0 1-7.998 7.998z" fill="" /><path d="M283.82 408.01a7.966 7.966 0 0 1-5.958-2.664c-15.138-16.902-44.388-16.942-59.59-0.008a7.98 7.98 0 0 1-11.294 0.61 7.996 7.996 0 0 1-0.61-11.294 56.08 56.08 0 0 1 41.686-18.622 56.082 56.082 0 0 1 41.726 18.644 8.004 8.004 0 0 1-5.96 13.334z" fill="" /><path d="M504 464.014h-47.99a7.994 7.994 0 0 1-7.998-7.998 7.994 7.994 0 0 1 7.998-7.998H504a7.994 7.994 0 0 1 7.998 7.998 7.992 7.992 0 0 1-7.998 7.998z" fill="" /></svg>