<?xml version="1.0" encoding="utf-8"?>
<!-- Uploaded to: SVG Repo, www.svgrepo.com, Generator: SVG Repo Mixer Tools -->
<svg width="800px" height="800px" viewBox="0 0 1024 1024" fill="#000000" class="icon"  version="1.1" xmlns="http://www.w3.org/2000/svg"><path d="M791.942 1023.906H152.072a7.94 7.94 0 0 1-5.78-2.484 7.946 7.946 0 0 1-2.21-5.876l31.994-703.862a8 8 0 0 1 4.412-6.794c3.446-1.726 34.19-16.84 51.568-16.84 9.888 0 18.878 4.498 27.572 8.842 7.358 3.678 14.302 7.154 20.41 7.154 6.108 0 13.06-3.476 20.416-7.154 8.702-4.344 17.692-8.842 27.574-8.842 9.88 0 18.872 4.498 27.572 8.842 7.358 3.678 14.308 7.154 20.416 7.154s13.06-3.476 20.418-7.154c8.702-4.344 17.692-8.842 27.572-8.842s18.872 4.49 27.572 8.842c7.358 3.678 14.318 7.154 20.426 7.154s13.06-3.476 20.416-7.154c8.694-4.344 17.684-8.842 27.572-8.842s18.872 4.498 27.572 8.842c7.358 3.678 14.31 7.154 20.418 7.154s13.06-3.476 20.418-7.154c8.702-4.344 17.684-8.842 27.572-8.842s18.872 4.498 27.572 8.842c7.358 3.678 14.31 7.154 20.418 7.154s13.06-3.476 20.418-7.154c8.702-4.344 17.684-8.842 27.572-8.842 17.386 0 48.116 15.114 51.566 16.84a7.98 7.98 0 0 1 4.406 6.794l31.992 703.862a7.91 7.91 0 0 1-2.202 5.876 7.904 7.904 0 0 1-5.772 2.484z m-631.496-15.998h623.12l-31.398-690.732c-10.56-4.936-30.212-13.13-40.21-13.13-6.11 0-13.06 3.476-20.418 7.154-8.702 4.344-17.684 8.842-27.572 8.842s-18.872-4.498-27.572-8.842c-7.358-3.678-14.308-7.154-20.418-7.154-6.108 0-13.058 3.476-20.418 7.154-8.702 4.344-17.684 8.842-27.572 8.842s-18.872-4.498-27.572-8.842c-7.358-3.678-14.308-7.154-20.418-7.154-6.108 0-13.058 3.476-20.416 7.154-8.694 4.344-17.684 8.842-27.572 8.842-9.888 0-18.878-4.498-27.582-8.842-7.358-3.678-14.308-7.154-20.416-7.154s-13.06 3.476-20.416 7.154c-8.702 4.344-17.692 8.842-27.574 8.842-9.88 0-18.872-4.498-27.572-8.842-7.358-3.678-14.31-7.154-20.416-7.154-6.11 0-13.06 3.476-20.418 7.154-8.702 4.344-17.692 8.842-27.572 8.842s-18.872-4.49-27.564-8.842c-7.358-3.678-14.31-7.154-20.418-7.154-9.154 0-27.94 7.374-40.218 13.122l-31.398 690.74z" fill="" /><path d="M759.948 991.912H184.066a7.994 7.994 0 0 1-7.998-7.998 7.994 7.994 0 0 1 7.998-7.998h575.88a7.994 7.994 0 0 1 7.998 7.998 7.992 7.992 0 0 1-7.996 7.998zM532.916 272.052a7.99 7.99 0 0 1-7.514-10.732l75.828-208.332C609.4 30.518 628.24 13.608 654.282 5.36c25.322-8.006 54.488-6.85 82.248 3.248 59.8 21.746 75.016 77.32 59.144 120.976l-33.698 136.394a7.978 7.978 0 0 1-9.684 5.842 8.004 8.004 0 0 1-5.844-9.686l33.948-137.206c12.996-35.882 2.92-82.28-49.334-101.292-24.464-8.896-50.006-9.944-71.954-3.024-21.2 6.708-36.414 20.152-42.852 37.844l-75.828 208.332a8 8 0 0 1-7.512 5.264z" fill="" /><path d="M748.668 165.702a7.97 7.97 0 0 1-6.748-3.71c-0.11-0.156-13.482-20.168-49.146-33.126-35.648-12.974-58.754-6.256-59.004-6.202-4.108 1.274-8.67-1.062-9.982-5.288a7.972 7.972 0 0 1 5.218-9.974c1.108-0.368 28.134-8.56 69.236 6.436 41.162 14.958 56.55 38.578 57.174 39.578a7.996 7.996 0 0 1-2.452 11.038 8.08 8.08 0 0 1-4.296 1.248zM715.832 255.9a7.976 7.976 0 0 1-6.75-3.71c-0.11-0.156-13.48-20.168-49.128-33.142-35.712-12.99-58.754-6.248-59.004-6.186-4.062 1.28-8.67-1.054-9.982-5.282a7.976 7.976 0 0 1 5.216-9.982c1.124-0.344 28.12-8.53 69.236 6.42 41.146 14.974 56.536 38.594 57.16 39.594a7.994 7.994 0 0 1-6.748 12.288zM216.052 272.052a7.998 7.998 0 0 1-7.912-6.866L176.146 41.234a8 8 0 0 1 6.788-9.052c4.39-0.664 8.428 2.414 9.052 6.788l31.994 223.954a8 8 0 0 1-7.928 9.128z" fill="" /><path d="M264.042 272.052a7.994 7.994 0 0 1-7.772-6.146c-0.398-1.664-40.084-167.082-78.708-221.158a7.994 7.994 0 0 1 1.858-11.154 7.986 7.986 0 0 1 11.154 1.858c40.438 56.614 79.61 219.83 81.258 226.75a7.996 7.996 0 0 1-7.79 9.85zM312.032 272.052a7.994 7.994 0 0 1-7.764-6.124c-35.812-148.296-78.648-221-79.078-221.72a8 8 0 0 1 2.756-10.966 7.988 7.988 0 0 1 10.966 2.75c1.804 3 44.444 75.204 80.898 226.188a7.986 7.986 0 0 1-5.898 9.646 7.734 7.734 0 0 1-1.88 0.226z" fill="" /><path d="M224.066 80.094c-0.64 0-1.296-0.078-1.946-0.242a7.988 7.988 0 0 1-5.82-9.694l8-31.994a7.958 7.958 0 0 1 9.694-5.818 7.986 7.986 0 0 1 5.818 9.694l-7.998 31.994a7.988 7.988 0 0 1-7.748 6.06zM504 272.052a7.994 7.994 0 0 1-7.998-7.998v-55.988h-143.97v55.988c0 4.422-3.578 7.998-7.998 7.998s-7.998-3.576-7.998-7.998v-63.986a7.994 7.994 0 0 1 7.998-7.998H504a7.994 7.994 0 0 1 7.998 7.998v63.986a7.994 7.994 0 0 1-7.998 7.998z" fill="" /><path d="M456.01 272.052a7.994 7.994 0 0 1-7.998-7.998c0-13.232-10.764-23.994-23.996-23.994s-23.996 10.762-23.996 23.994a7.994 7.994 0 0 1-7.998 7.998 7.992 7.992 0 0 1-7.998-7.998c0-22.05 17.942-39.992 39.992-39.992s39.992 17.942 39.992 39.992a7.994 7.994 0 0 1-7.998 7.998zM344.034 192.07a7.996 7.996 0 0 1-5.656-13.654l15.998-15.996a7.996 7.996 0 1 1 11.31 11.31l-15.998 15.996a7.964 7.964 0 0 1-5.654 2.344z" fill="" /><path d="M488.004 176.074h-127.974c-4.42 0-7.998-3.578-7.998-7.998s3.578-8 7.998-8h127.974c4.42 0 7.998 3.578 7.998 8s-3.578 7.998-7.998 7.998z" fill="" /><path d="M504 192.07a7.98 7.98 0 0 1-5.656-2.344l-15.998-15.996a7.996 7.996 0 1 1 11.31-11.31l15.998 15.996A7.996 7.996 0 0 1 504 192.07zM376.402 779.614a8.02 8.02 0 0 1-5.312-2.016c-32.446-28.838-51.052-70.236-51.052-113.618 0-83.794 68.172-151.976 151.968-151.976 11.348 0 22.66 1.258 33.626 3.726a7.994 7.994 0 0 1 6.044 9.558c-0.976 4.312-5.294 7.032-9.56 6.046a137.7 137.7 0 0 0-30.11-3.328c-74.978 0-135.972 60.988-135.972 135.972a136.104 136.104 0 0 0 45.678 101.65 8.006 8.006 0 0 1-5.31 13.986zM472.006 815.95a152.81 152.81 0 0 1-33.79-3.782 7.994 7.994 0 0 1-6.022-9.576c0.976-4.31 5.25-7.044 9.568-6.014a136.964 136.964 0 0 0 30.244 3.374c74.97 0 135.972-61.002 135.972-135.97a136.184 136.184 0 0 0-45.302-101.34 8 8 0 0 1-0.64-11.292c2.984-3.296 8.06-3.562 11.294-0.624a152.126 152.126 0 0 1 50.644 113.258c0 83.792-68.174 151.966-151.968 151.966z" fill="" /><path d="M504 703.972a7.98 7.98 0 0 1-5.656-2.344l-63.986-63.988a7.996 7.996 0 1 1 11.31-11.308l63.988 63.986a7.996 7.996 0 0 1-5.656 13.654z" fill="" /><path d="M440.014 639.984a7.994 7.994 0 0 1-5.656-13.652l159.966-159.974a7.996 7.996 0 1 1 11.31 11.31l-159.966 159.974a7.97 7.97 0 0 1-5.654 2.342zM360.03 847.942a7.994 7.994 0 0 1-5.654-13.652l143.97-143.97a7.996 7.996 0 1 1 11.31 11.31l-143.97 143.968a7.976 7.976 0 0 1-5.656 2.344zM759.948 320.042a7.988 7.988 0 0 1-6.404-3.202 8.006 8.006 0 0 1 1.608-11.192l63.986-47.99a7.99 7.99 0 0 1 11.202 1.602 8.006 8.006 0 0 1-1.608 11.192l-63.988 47.99c-1.44 1.078-3.124 1.6-4.796 1.6zM807.938 991.912a8.176 8.176 0 0 1-3.578-0.844 8.008 8.008 0 0 1-3.578-10.732l31.994-63.986c1.984-3.966 6.794-5.53 10.732-3.578a8.002 8.002 0 0 1 3.578 10.732l-31.994 63.988a8.016 8.016 0 0 1-7.154 4.42z" fill="" /><path d="M850.584 943.906a7.992 7.992 0 0 1-6.654-3.562l-10.654-15.98a7.996 7.996 0 0 1 2.218-11.092c3.624-2.452 8.624-1.482 11.092 2.218l10.652 15.982a8 8 0 0 1-6.654 12.434zM871.908 975.916a8.01 8.01 0 0 1-7.966-7.452L815.952 264.6a8.008 8.008 0 0 1 7.436-8.53c4.204-0.266 8.216 3.024 8.53 7.436l47.99 703.864a8.02 8.02 0 0 1-7.436 8.53c-0.188 0-0.376 0.016-0.564 0.016z" fill="" /><path d="M791.942 1023.906a8.004 8.004 0 0 1-6.86-3.89 7.976 7.976 0 0 1 2.75-10.966l79.984-47.99a7.994 7.994 0 1 1 8.214 13.716l-79.982 47.99c-1.28 0.766-2.702 1.14-4.106 1.14z" fill="" /><path d="M823.934 272.052h-31.992c-4.422 0-8-3.576-8-7.998a7.994 7.994 0 0 1 8-7.998h31.992a7.994 7.994 0 0 1 7.998 7.998 7.992 7.992 0 0 1-7.998 7.998z" fill="" /></svg>