<?xml version="1.0" encoding="utf-8"?>
<!-- Uploaded to: SVG Repo, www.svgrepo.com, Generator: SVG Repo Mixer Tools -->
<svg width="800px" height="800px" viewBox="-72.78 0 364.257 364.257" xmlns="http://www.w3.org/2000/svg"><defs><style>.a{fill:#febe69;}.b{fill:#ffffff;}.c{fill:#211715;}.d{fill:#ffda71;}.e{fill:#d9d9d9;}.f{fill:#7abee6;}.g{fill:#bbdef2;}.h{fill:#3d8dcc;}.i{fill:#f2635f;}.j{fill:#b9e2b6;}.k{fill:#74c66d;}.l{fill:#f6928f;}.m{fill:#b3b3b3;}</style></defs><path class="a" d="M132.732,77.6a7.331,7.331,0,0,0-2.693-4.018l-1.062-.858c-10.943,9.128-23.938,22.127-31,32.835a66.636,66.636,0,0,0-11.337,39.05l.267.011c5.1,0,9.442-3.282,13.261-6.7,3.768-3.369,7.6-6.823,10.078-11.23,5.594-9.968,3.465-23.4,10.682-32.266,2.721-3.342,7.731-7.427,10.29-10.895A7.186,7.186,0,0,0,132.732,77.6Z"/><path class="b" d="M31.762,191.81c1.766-17.081,45.714-22.933,81.2-22.933,36.215,0,81.251,6.1,81.251,24.007,0,15.47-46.151,23.17-81.251,23.148-35.1.022-81.251-7.678-81.251-23.148A10.578,10.578,0,0,1,31.762,191.81Z"/><path class="c" d="M196.209,192.884c-.083-9.63-10.358-14.73-18.137-17.585-12.749-4.677-26.665-6.365-40.126-7.446a315.615,315.615,0,0,0-44.552-.383c-13.88.852-28.06,2.378-41.409,6.446a51.636,51.636,0,0,0-14.5,6.482c-3.345,2.327-6.432,5.455-7.418,9.537a13.194,13.194,0,0,0-.357,2.949c-.022,2.574,3.978,2.577,4,0a10.391,10.391,0,0,1,.078-1.272c-.047.354.011-.045.041-.177.052-.233.1-.466.161-.7a10.688,10.688,0,0,1,.365-1.1c.114-.292-.122.267.008-.02.037-.082.074-.165.114-.246.11-.217.218-.434.337-.647a13.365,13.365,0,0,1,3.333-3.842c3.291-2.767,7.91-4.76,12.152-6.219,12.369-4.252,25.658-5.888,38.64-6.885a316.644,316.644,0,0,1,42.615-.366c13.41.78,27.018,2.23,39.964,5.96a53.04,53.04,0,0,1,13.933,5.836,18.88,18.88,0,0,1,4.379,3.682,10.3,10.3,0,0,1,2.1,3.849c.054.2.1.405.143.608.023.1.115.687.059.265a10.391,10.391,0,0,1,.078,1.272c.022,2.572,4.022,2.579,4,0Z"/><path class="c" d="M100.888,207.673A26.564,26.564,0,0,1,129.8,206.56c2.2,1.345,4.215-2.113,2.019-3.454a30.511,30.511,0,0,0-32.952,1.113,2.057,2.057,0,0,0-.718,2.737,2.017,2.017,0,0,0,2.737.717Z"/><path class="c" d="M83.05,185.3c7.4-4.5,16.614-2.909,22.91,2.77,1.907,1.721,4.744-1.1,2.828-2.828-7.606-6.862-18.785-8.852-27.757-3.4-2.2,1.335-.189,4.8,2.019,3.454Z"/><path class="d" d="M87.846,181.8a10.041,10.041,0,0,1,3.373-4.151,66.447,66.447,0,0,1,9.737-6c5.566-2.871,10.793-5.28,15.257-9.209a45.8,45.8,0,0,0,8.064-9.272c4.568-6.99,6.328-15.51,10.82-22.549a10.314,10.314,0,0,1,4.338-3.967,5.327,5.327,0,0,0,3.223-3.6,37.79,37.79,0,0,1,1.676-5.248,10.9,10.9,0,0,1,2.85-3.893,3.226,3.226,0,0,1,4.691.576l.037.052a2.822,2.822,0,0,1,.088,3.251,16.819,16.819,0,0,0-2.705,8.081,4.486,4.486,0,0,0,1.28,3.615c4.493,4.33,5.1,11.954,4.078,19.786-.949,7.281-6.43,15.815-8.4,18.443-11.151,14.907-25.633,21.754-43.25,24.612a29.05,29.05,0,0,1-9.983-.287,7.3,7.3,0,0,1-5.5-5.373A8.443,8.443,0,0,1,87.846,181.8Z"/><path class="c" d="M89.573,182.809c1.427-3.161,4.638-4.983,7.5-6.706,3.39-2.043,6.962-3.739,10.46-5.584a48.467,48.467,0,0,0,18.229-15.973c4.432-6.643,6.23-14.575,10.185-21.465a11.333,11.333,0,0,1,3.448-4.145c1.551-.993,3.036-1.537,4.157-3.107s1.352-3.637,1.957-5.44a10.752,10.752,0,0,1,2.624-4.628c.82-.779,2.333-.791,2.337.479,0,.671-.867,1.595-1.162,2.185a19.144,19.144,0,0,0-1.161,2.877,14.083,14.083,0,0,0-.769,6.033c.308,2.038,1.559,3.1,2.754,4.63,2.013,2.571,2.71,6.011,2.893,9.2a33.377,33.377,0,0,1-1.043,11.048,47.092,47.092,0,0,1-8.724,16.134,57.679,57.679,0,0,1-15.206,13.329A66.033,66.033,0,0,1,109.524,189a45.46,45.46,0,0,1-10.778,1.637c-3.18-.018-7.39-.134-8.964-3.449a6.3,6.3,0,0,1-.007-4.853,2.014,2.014,0,0,0-1.4-2.46,2.047,2.047,0,0,0-2.46,1.4,9.64,9.64,0,0,0,2.7,10.753c3.236,2.644,8.079,2.805,12.08,2.559a61.047,61.047,0,0,0,11.5-2.132,75.13,75.13,0,0,0,10.586-3.625A60.291,60.291,0,0,0,152.9,160.581a37.049,37.049,0,0,0,3.605-23.6,19.651,19.651,0,0,0-1.8-5.229,14.553,14.553,0,0,0-1.435-2.214,17.564,17.564,0,0,1-1.7-2c-.9-1.638.106-4.394.7-6,.744-2.006,2.4-3.562,2.142-5.839-.5-4.35-5.736-5.78-8.811-3.064a13.234,13.234,0,0,0-3.484,5.342q-.52,1.376-.932,2.788a8.639,8.639,0,0,1-.993,2.9,4.6,4.6,0,0,1-1.777,1.259,11.494,11.494,0,0,0-2.732,1.857,19.044,19.044,0,0,0-3.615,5.018,119.184,119.184,0,0,0-5.177,11.749c-3.326,8.035-8.291,15.273-15.626,20.154-7.133,4.748-15.682,7.394-22.179,13.117a11.737,11.737,0,0,0-2.978,3.968,2.062,2.062,0,0,0,.718,2.737A2.015,2.015,0,0,0,89.573,182.809Z"/><path class="c" d="M142.982,144.584a25.48,25.48,0,0,1-12.153,21.554c-2.2,1.329-.193,4.79,2.019,3.454a29.583,29.583,0,0,0,14.134-25.008c0-2.574-4-2.578-4,0Z"/><path class="e" d="M181.149,154.672c-7.722,2.264-16.618,7.047-15.277,11.619,1.521,5.19,13.925,3.184,20.419,1.281,6.992-2.051,16.561-5.943,14.983-11.325C199.843,151.366,187.983,152.668,181.149,154.672Z"/><path class="f" d="M201.585,157.079c.954,3.255,2.749,8.715,4.072,12.965a3.493,3.493,0,0,1-1.234,3.6c-3.45,3.174-7.924,4.755-12.308,6.2-5.809,1.919-12.34,3.787-18.5,3.475a4.192,4.192,0,0,1-3.945-2.93c-1.277-4.435-2.926-10.278-3.934-13.718l.137-.387c1.521,5.19,13.925,3.184,20.419,1.281,6.992-2.051,16.561-5.943,14.983-11.325Z"/><path class="c" d="M199.656,157.611c1.152,3.906,2.439,7.772,3.663,11.656.222.705.669,1.49.312,2.206a6.583,6.583,0,0,1-2.194,2.029,27.246,27.246,0,0,1-5.875,3.026,86.983,86.983,0,0,1-13.326,4.017,35.37,35.37,0,0,1-7.264.815c-1.782,0-3-.2-3.532-2.043-1.261-4.389-2.494-8.787-3.777-13.171-.722-2.465-4.583-1.416-3.857,1.064,1.3,4.444,2.5,8.918,3.83,13.355a6.309,6.309,0,0,0,4.448,4.535c2.509.665,5.473.213,8-.138a77.083,77.083,0,0,0,15.752-4.28,35.108,35.108,0,0,0,6.924-3.26c1.994-1.281,4.363-2.944,4.9-5.41a7.574,7.574,0,0,0-.546-4q-.626-1.983-1.26-3.963c-.8-2.5-1.6-4.989-2.343-7.5-.726-2.464-4.588-1.415-3.857,1.063Z"/><path class="c" d="M180.617,152.743a43,43,0,0,0-11.061,4.845c-2.6,1.683-5.592,4.115-5.8,7.463-.418,6.606,8.478,6.815,12.953,6.39a55.052,55.052,0,0,0,19.219-5.4c2.664-1.333,5.634-3.179,6.915-6a5.856,5.856,0,0,0-1.926-7.375c-2.635-1.819-6.348-1.9-9.425-1.754a47.5,47.5,0,0,0-10.871,1.83c-2.468.714-1.418,4.575,1.064,3.857a43.96,43.96,0,0,1,7.68-1.524,22.336,22.336,0,0,1,7.472.171c.335.082.984.278,1.125.339a5.991,5.991,0,0,1,.584.3,1.631,1.631,0,0,1,.34.236,1.539,1.539,0,0,1,.563,1.515c-.213,1.824-2.687,3.38-4.321,4.3a48.53,48.53,0,0,1-15.471,5.1,32.024,32.024,0,0,1-7.638.5,9.3,9.3,0,0,1-2.961-.624,7.455,7.455,0,0,1-.835-.5c.218.175-.134-.149-.18-.21-.17-.225-.031.062-.182-.3-.089-.21-.013,0,0,.034a1.435,1.435,0,0,1-.12-.414c.024.235.005-.433-.008-.33a3.258,3.258,0,0,1,.563-1.274,10.775,10.775,0,0,1,2.974-2.688,38.372,38.372,0,0,1,10.41-4.642C184.142,155.867,183.094,152.006,180.617,152.743Z"/><path class="b" d="M45.593,146.987c-2.736.511-2.454-1.165-2.5-1.416-.621-3.254-1.384-7.459-1.55-8.348a2.169,2.169,0,0,1,1.706-2.794l10.32-1.927a2.125,2.125,0,0,1,2.574,1.851c.553,2.96,1.322,7.035,1.593,8.484.069.369.36,1.815-1.822,2.223l-10.32,1.927"/><path class="g" d="M57.869,216.072l-.768.144c-2.689.5-6.692.53-7.951-.953-1.032-1.215-1.77-3.433-2.343-6.5-2.736-14.651-4.916-27.817-7.489-42.343a15.439,15.439,0,0,1,1.491-9.8c.279-.54.584-1.162.933-1.952.569-1.286,2.312-4.8,3.225-7.563l10.946-2.044,1.027-.192c3.526,3.506,5.071,4.833,6.067,5.828.725.724,1.3,1.252,1.824,1.7a14.045,14.045,0,0,1,4.584,7.9c2.885,14.7,5.624,27.859,8.39,42.672.662,3.543,1.22,5.99-.425,7.782-1.453,1.583-4.373,2.491-6.485,2.885Z"/><path class="h" d="M71.062,168.621q-.144-.717-.287-1.437l-.612.089c-6.184,1.155-24.4,4.591-28.854,5.422l-.855.187c.974,5.575,1.909,11.007,2.863,16.467l.343-.088c9.557-2.087,20.363-3.911,30.022-5.457l.4-.075C73.083,178.714,72.08,173.727,71.062,168.621Z"/><path class="c" d="M56.674,147.417c1.519,1.486,3.086,2.919,4.614,4.4,1.645,1.589,3.481,3.012,4.67,5,1.511,2.525,1.818,5.5,2.38,8.342q.928,4.685,1.868,9.368c1.232,6.16,2.467,12.32,3.667,18.486q.925,4.76,1.821,9.524c.248,1.322.559,2.652.7,3.99a4.3,4.3,0,0,1-.224,2.522c-1,1.79-4.075,2.333-5.883,2.683-1.614.313-3.233.6-4.849.906-3.508.655-7.144,1.674-10.716,1.867a10.944,10.944,0,0,1-3.067-.158,1.758,1.758,0,0,1-1.5-1.183c-1.235-2.345-1.487-5.272-1.96-7.839q-1.728-9.375-3.346-18.769-.93-5.34-1.854-10.68c-.608-3.5-1.418-7.019-1.83-10.543-.384-3.282.608-6,1.968-8.912,1.2-2.57,2.413-5.147,3.417-7.8a2.017,2.017,0,0,0-1.4-2.46,2.044,2.044,0,0,0-2.46,1.4c-2.024,5.351-5.65,10.331-5.613,16.243.02,3.283.921,6.625,1.484,9.849q.9,5.133,1.784,10.269c1.176,6.775,2.358,13.548,3.593,20.311.567,3.1.932,6.372,2.053,9.338.884,2.338,2.186,4.125,4.749,4.673,4.122.881,8.463-.382,12.517-1.139,4.214-.787,8.922-1.161,12.826-3.025a7,7,0,0,0,4.325-5.628c.307-2.909-.689-6.073-1.225-8.908-1.267-6.7-2.589-13.392-3.925-20.079q-1.156-5.793-2.316-11.586-.567-2.844-1.128-5.688a27.347,27.347,0,0,0-1.254-5.013c-1.229-3.04-3.232-5.089-5.555-7.309-1.836-1.755-3.69-3.492-5.506-5.269-1.842-1.8-4.673,1.025-2.829,2.829Z"/><path class="c" d="M45.061,145.058a4.51,4.51,0,0,1-.6.019c.07,0,.271.1.127.01-.236-.148.313.211.109.06a1.023,1.023,0,0,1,.392.6c.012.414.015-.048,0-.172-.07-.772-.264-1.543-.406-2.3-.4-2.138-.767-4.284-1.186-6.418-.02-.1-.027-.439-.021-.073.006.387.008-.077,0-.182-.005-.088.01-.173.009-.26,0,.094-.127.43-.008.123.018-.046.074-.286-.01-.035-.1.285.036-.113.1-.158.031-.022-.247.245-.258.26.039-.053.32-.144.033-.053.166-.053.332-.091.5-.127.2-.042.407-.075.61-.113l4.748-.887,4.446-.83c.108-.02.441-.078.4-.073-.179.023.315-.089.075,0-.207.079.1.028.082.036.075-.039-.378-.053-.05.007l-.172-.129q.186.2.034.008c-.063-.262.051.178.135.245-.22-.176-.106-.361-.063-.15.014.065.047.128.062.194.107.469.188.943.276,1.416q.648,3.461,1.3,6.92c.025.133.044.271.076.4.076.314-.052-.549-.03-.223.012.17-.048.6.042-.041-.059.422.025-.039.2-.23-.215.24,0,.033.065-.011a1.733,1.733,0,0,1-.313.177c.269-.108-.418.071-.412.069-.186.039-.374.07-.561.105l-9.738,1.818a2.02,2.02,0,0,0-1.4,2.461,2.044,2.044,0,0,0,2.461,1.4L56,147.072a5,5,0,0,0,2.85-1.343,3.716,3.716,0,0,0,.84-3.282c-.392-2.406-.9-4.8-1.35-7.194a7.718,7.718,0,0,0-.927-3,3.965,3.965,0,0,0-3.88-1.749c-1.6.2-3.186.573-4.768.868L43.3,132.392a4.824,4.824,0,0,0-2.666,1.206,4.232,4.232,0,0,0-1.132,3.346c.1,1.071.357,2.14.551,3.2q.456,2.483.922,4.962c.032.169.058.34.1.506.081.364.038.146.028.031.009.1.008.2.016.295a3.486,3.486,0,0,0,.468,1.6c.989,1.6,2.878,1.658,4.543,1.38a2.015,2.015,0,0,0,1.4-2.46,2.048,2.048,0,0,0-2.461-1.4Z"/><path class="b" d="M41.021,198.419,37.1,201.465c9.558,7.063,30.508,11.553,51.928,13.48l-2.448-5.366c-1.784-6.341-7.673-10.257-10.534-11.007-3.867-1.014-8.519-1.527-12.27-.147-5.525-4.9-17.314-4.6-21.98-.6Z"/><path class="c" d="M41.84,174.623c9.62-1.8,19.234-3.624,28.854-5.421,2.528-.472,1.457-4.328-1.063-3.857-9.62,1.8-19.234,3.624-28.854,5.421-2.527.472-1.457,4.328,1.063,3.857Z"/><path class="c" d="M44.191,191.19c9.941-2.163,19.98-3.848,30.023-5.458a2.016,2.016,0,0,0,1.4-2.46,2.05,2.05,0,0,0-2.461-1.4c-10.042,1.609-20.081,3.295-30.022,5.458-2.514.547-1.45,4.4,1.063,3.857Z"/><path class="i" d="M191.534,81.708a12.383,12.383,0,0,1-5.471.931c-5.1-.34-11.509,2.992-14.658,8.766a18.586,18.586,0,0,0,7.986,23.241,27.253,27.253,0,0,0,11.25,2.814,18.616,18.616,0,0,0,7.707-1.2c3.528-1.345,7.681-3.537,10.21-6.556A18.659,18.659,0,0,0,212.7,94.634c-.877-5.431-3.842-10.67-9.318-12.854A15.087,15.087,0,0,0,191.534,81.708Z"/><path class="c" d="M191,79.78a11.679,11.679,0,0,1-3.431.856c-1.056.069-2.108-.065-3.164.018a17.5,17.5,0,0,0-5.871,1.562c-3.8,1.71-7.694,5.045-9.2,9.018a20.779,20.779,0,0,0,5.913,22.97,24.253,24.253,0,0,0,12.812,5.022,24.7,24.7,0,0,0,14.471-2.627,21.767,21.767,0,0,0,10.246-9.717A21.2,21.2,0,0,0,214.4,92.893a18.49,18.49,0,0,0-7.575-11.572A17.5,17.5,0,0,0,191,79.78a2.06,2.06,0,0,0-1.4,2.46,2.014,2.014,0,0,0,2.46,1.4,13.759,13.759,0,0,1,11.655.492,13.451,13.451,0,0,1,6.263,7.791,17.505,17.505,0,0,1,.006,11.341,16.587,16.587,0,0,1-7.521,8.827,21.141,21.141,0,0,1-12,3.361A22.848,22.848,0,0,1,179.2,112.2a16.657,16.657,0,0,1-6.686-17.724c.984-3.968,4.09-6.946,7.725-8.66a12.156,12.156,0,0,1,4.774-1.192,19.931,19.931,0,0,0,7.049-.984,2.059,2.059,0,0,0,1.4-2.46A2.016,2.016,0,0,0,191,79.78Z"/><path class="c" d="M185.854,87.213a12.038,12.038,0,0,0-1.6,1.866,9.513,9.513,0,0,0-.986,1.744,1.477,1.477,0,0,0-.238.743,1.526,1.526,0,0,0,.036.8,2,2,0,0,0,2.46,1.4l.478-.2a2.014,2.014,0,0,0,.718-.717,9.657,9.657,0,0,1,1.212-2.049l-.312.4a9.786,9.786,0,0,1,1.063-1.157,2,2,0,0,0,0-2.828,2.012,2.012,0,0,0-1.414-.586,2.147,2.147,0,0,0-1.414.586Z"/><path class="c" d="M193.593,89.062q.254.171.5.357l-.405-.312a9.653,9.653,0,0,1,1.729,1.728l-.313-.4q.273.356.512.734a2.1,2.1,0,0,0,1.195.919,1.516,1.516,0,0,0,.8.036,1.492,1.492,0,0,0,.744-.237,2,2,0,0,0,.717-2.737,11.436,11.436,0,0,0-3.455-3.538,1.5,1.5,0,0,0-.744-.238,1.526,1.526,0,0,0-.8.036,2.047,2.047,0,0,0-1.195.919,2.018,2.018,0,0,0-.2,1.541l.2.478a2.008,2.008,0,0,0,.718.718Z"/><path class="j" d="M131.542,201.779c-2.275,3.617-3.982,6.985-8.852,8.962-2.517,1.021-5.409,2.412-6.316,3.462-7.87-10.168-5.037-24.752-.287-30.545A5.359,5.359,0,0,1,119.238,182c1.355-.273,2.721.5,4.428,1.66a23.1,23.1,0,0,1,4.2-4.754c3.334-2.334,5.486-3.4,9.472-3.889,4.339-.528,14.289,1.385,18.209,7.343-.064.12-.121.243-.179.365-1.852,3.959-3.84,7.955-6.826,11.128q-.276.292-.563.576c-3.3,3.257-8.043,5.405-12.591,4.49a2.992,2.992,0,0,0-1.39-.086,2.42,2.42,0,0,0-1.206,1.044C132.348,200.517,131.936,201.152,131.542,201.779Z"/><path class="k" d="M148.547,193.857q-.276.292-.563.576c-3.3,3.257-8.043,5.405-12.591,4.49a2.992,2.992,0,0,0-1.39-.086,2.42,2.42,0,0,0-1.206,1.044c-3.034,4.305-4.392,8.54-10.107,10.86-3.1,1.256-6.761,3.072-6.6,4.129a12.848,12.848,0,0,0,7,9.2,24.915,24.915,0,0,0,10.93,2.247,44.94,44.94,0,0,0,11.912-1.981l4.425-1.368A28.457,28.457,0,0,0,163.137,184c-1.294-2.441-4.309-4.949-6.464-3.219a5.22,5.22,0,0,0-1.3,1.949C153.521,186.688,151.533,190.684,148.547,193.857Z"/><path class="c" d="M147.132,192.443a15.12,15.12,0,0,1-6.825,4.3,10.174,10.174,0,0,1-3.545.359c-1.538-.123-2.924-.634-4.328.308a9.535,9.535,0,0,0-2.364,2.953c-.646,1.01-1.257,2.041-1.91,3.046a13.924,13.924,0,0,1-4.653,4.717c-2.282,1.3-4.861,1.993-7.064,3.465a5.786,5.786,0,0,0-2.046,2c-.619,1.189-.13,2.7.29,3.885a15.9,15.9,0,0,0,10.171,9.48c5.526,1.84,11.454,1.568,17.1.449a66.26,66.26,0,0,0,6.683-1.812,23.393,23.393,0,0,0,7.3-3.686,30.639,30.639,0,0,0,9.313-38.172c-1.251-2.552-3.514-5.209-6.532-5.5-3.655-.347-4.882,3.175-6.2,5.851a34.658,34.658,0,0,1-5.38,8.351c-1.743,1.889,1.078,4.725,2.829,2.828a33.429,33.429,0,0,0,4.585-6.435c.641-1.151,1.232-2.328,1.8-3.514.361-.749.835-2.58,1.606-3.009,1.392-.775,3.168,2.136,3.648,3.068a26.08,26.08,0,0,1,2.364,7.041,26.653,26.653,0,0,1-9.405,25.52,17.764,17.764,0,0,1-5.675,3.39c-1.827.564-3.648,1.169-5.5,1.648a32.74,32.74,0,0,1-15.024.781c-3.939-.856-7.7-2.844-9.518-6.629a8.54,8.54,0,0,1-.479-1.259,6.023,6.023,0,0,0-.2-.751l-.081-.388-.17.734c.069.113-.115-.009.163-.139.025-.012.477-.348.381-.28a14.133,14.133,0,0,1,1.53-.889c2.128-1.12,4.495-1.8,6.484-3.174a18.749,18.749,0,0,0,4.863-5.136c.63-.94,1.21-1.912,1.81-2.871.314-.5.631-1,.962-1.489a4.673,4.673,0,0,1,.413-.6q.222-.172-.062-.108l.4.07c5.632,1.2,11.266-1.582,15.1-5.581C151.743,193.413,148.918,190.58,147.132,192.443Z"/><path class="c" d="M118.1,213.192c-4.771-6.276-5.732-14.6-3.519-22.067a20.757,20.757,0,0,1,1.747-4.244c.81-1.452,1.425-2.364,3.089-2.87.568-.172-.107-.113.419-.061.31.03-.3-.144.226.031a3.265,3.265,0,0,1,1.041.434c1.117.614,2.144,1.388,3.2,2.1a28.32,28.32,0,0,0,11.818,4.876,2.067,2.067,0,0,0,2.461-1.4,2.015,2.015,0,0,0-1.4-2.46,26.015,26.015,0,0,1-11.075-4.618c-2.207-1.508-4.553-3.4-7.4-2.843-4.111.8-6.077,4.695-7.414,8.282a30.486,30.486,0,0,0-1.787,12.369,26.509,26.509,0,0,0,5.141,14.484,2.064,2.064,0,0,0,2.736.718,2.014,2.014,0,0,0,.718-2.737Z"/><path class="c" d="M128.881,180.637a19.249,19.249,0,0,1,6.654-3.288,16.338,16.338,0,0,1,5.769-.261c4.265.532,8.815,2.135,11.792,5.347,1.753,1.892,4.577-.941,2.828-2.828-3.648-3.937-9.122-5.827-14.33-6.483-5.423-.684-10.3.98-14.732,4.059-2.1,1.459-.1,4.928,2.019,3.454Z"/><path class="c" d="M43.205,199.236c1.9-1.581,4.825-2.2,7.3-2.387a19.7,19.7,0,0,1,8.992,1.259,12.348,12.348,0,0,1,1.87.993c.7.447,1.3,1.162,2.143,1.289.918.138,2.03-.451,2.942-.612a15.61,15.61,0,0,1,2.993-.19,16.874,16.874,0,0,1,8.768,2.207,15.143,15.143,0,0,1,6.438,8.316c.729,2.463,4.59,1.414,3.857-1.063a19.321,19.321,0,0,0-9.3-11.309,19.528,19.528,0,0,0-6.811-1.907,19.9,19.9,0,0,0-9.155.665l1.946.514C61.69,194,57,192.83,52.459,192.787c-4.224-.04-8.765.865-12.083,3.62-1.982,1.647.861,4.463,2.829,2.829Z"/><path class="c" d="M164.234,35.24A143.6,143.6,0,0,1,190.061,3.674c1.9-1.745-.935-4.568-2.828-2.828A147.383,147.383,0,0,0,160.78,33.221c-1.333,2.21,2.124,4.223,3.454,2.019Z"/><path class="c" d="M188.633,56.405A78.422,78.422,0,0,1,217.3,40.866c2.462-.729,1.414-4.591-1.064-3.857A83.181,83.181,0,0,0,185.8,53.576c-1.959,1.676.882,4.494,2.829,2.829Z"/><path class="b" d="M133.269,27.332c-2.359,2.363-6.643,5.628-9.074,7.916-8.721,8.208-8.573,17.628-17.094,24.594-6.634,5.422-15.355,9.884-23.144,6.315S69.449,52.079,66.466,44.047A18.6,18.6,0,0,1,68.8,29.4c2.62-4.352,6.813-7.527,11.175-10.129s14.622-7.418,22.7-11.549a62.864,62.864,0,0,1,10.168-4.276,27.518,27.518,0,0,1,10.042-1.4A14.311,14.311,0,0,1,130.384,4.8c4.9,3.429,9.345,8.98,8.752,14.148C138.773,22.111,136.2,24.393,133.269,27.332Z"/><path class="l" d="M85.6,62.221c6.377-3.592,9.974-8.544,7.949-12.846-1.922-4.081-3.18-7.041-3.718-11.335-.8-6.409,2.155-9.447,5.967-13.078,2.422-2.308,7.975-5.854,13.5-8.74,7.195-3.76,17.1-6.7,25.782-3.519l2.884.493a10.428,10.428,0,0,1,1.171,5.751c-.363,3.164-2.933,5.446-5.867,8.385-2.359,2.363-6.643,5.628-9.074,7.916-8.721,8.208-8.573,17.628-17.094,24.594-6.634,5.422-15.355,9.884-23.144,6.315A18.777,18.777,0,0,1,81.085,64.5l2.738-1.352Q84.744,62.705,85.6,62.221Z"/><path class="c" d="M131.855,25.918c-2.208,2.184-4.674,4.092-7.033,6.106a37.365,37.365,0,0,0-6.752,7.387c-3.455,5.074-5.253,11.22-9.246,15.933a31.953,31.953,0,0,1-7.871,6.438,23.63,23.63,0,0,1-9.268,3.559c-6.419.771-11.452-3.372-15.32-8.017a47.907,47.907,0,0,1-5.231-7.863c-1.424-2.627-2.923-5.442-3.206-8.46-.676-7.212,3.624-13.442,9.243-17.513,4.747-3.44,10.163-5.909,15.4-8.5,3.109-1.538,6.223-3.067,9.32-4.63a85.731,85.731,0,0,1,9.377-4.3,29.364,29.364,0,0,1,11.142-2.039c3.679.155,6.762,2.042,9.411,4.482,2.448,2.256,4.948,5.271,5.334,8.709.421,3.748-2.918,6.327-5.3,8.7-1.824,1.821,1,4.65,2.828,2.828,2.57-2.566,5.746-5.3,6.356-9.086a13.591,13.591,0,0,0-2.717-9.775,26.629,26.629,0,0,0-8.089-7.564A17.939,17.939,0,0,0,119.2.1C111.566.829,104.77,4.46,98.033,7.828c-6.055,3.027-12.249,5.848-18.145,9.181C73.407,20.671,67.5,25.637,64.98,32.857A19.089,19.089,0,0,0,64.6,44.732,45.665,45.665,0,0,0,69,53.784c3.394,5.6,8.006,11.453,14.136,14.183,7.218,3.216,15.04.507,21.263-3.642a33.755,33.755,0,0,0,8.394-7.59,54.34,54.34,0,0,0,5-8.7,43.962,43.962,0,0,1,5.4-8.815,63.141,63.141,0,0,1,7.893-7.251c1.232-1.04,2.457-2.091,3.6-3.225C136.516,26.933,133.688,24.105,131.855,25.918Z"/><path class="c" d="M135.613,10.775c-12.881-4.566-26.843,2.4-37.263,9.663-4.034,2.811-8.4,6.521-10,11.334-1.963,5.891.624,12.465,3.092,17.784a4.952,4.952,0,0,1,.647,2.907,7.135,7.135,0,0,1-1.5,3.188,21.5,21.5,0,0,1-7.774,5.774c-2.308,1.141-.284,4.592,2.019,3.454,4.543-2.245,10.079-5.972,11.108-11.352.546-2.858-.648-5.029-1.769-7.572a28.105,28.105,0,0,1-2.386-8.337,10.3,10.3,0,0,1,1.589-7.066,24.79,24.79,0,0,1,4.657-4.9,54.036,54.036,0,0,1,7.383-4.976,69.644,69.644,0,0,1,8.345-4.362c6.532-2.749,13.954-4.1,20.789-1.679,2.431.862,3.477-3,1.064-3.857Z"/><path class="l" d="M72.981,41.042a6.928,6.928,0,0,1,.841-6.194A6.527,6.527,0,0,1,79.237,31.9a2.528,2.528,0,0,1,3.006,2.482c.2,3.56.836,8.183,1.377,12.106a3.1,3.1,0,0,1-.948,2.818,4.1,4.1,0,0,1-2.792.529,7.328,7.328,0,0,1-2.614-1.921A22.611,22.611,0,0,1,72.981,41.042Z"/><path class="c" d="M74.91,40.511A5.08,5.08,0,0,1,76.855,34.6a5.206,5.206,0,0,1,2.854-.714c.485.027.2.03.12.016.049.009.36.128.1.007.081.037.26.212.078.014.046.049.223.13.105.083-.158-.062.1.225.053.069-.065-.2.065.225.073.263.023.123.04.548.061.86.227,3.248.669,6.48,1.107,9.7.082.6.227,1.431.245,1.868a3.829,3.829,0,0,1,0,.415c-.026.35.054-.228-.023.129a.72.72,0,0,1-.184.422c.212-.155-.144.037-.261.068a2.17,2.17,0,0,1-.605.081c-.219.006-.34-.071-.157.041-.241-.148-.541-.328-.715-.465-2.3-1.814-3.816-4.745-4.992-7.428a2.013,2.013,0,0,0-2.736-.718,2.052,2.052,0,0,0-.718,2.737c1.469,3.351,3.455,6.769,6.5,8.921a5.4,5.4,0,0,0,5.539.283,4.779,4.779,0,0,0,2.323-4.771c-.411-4.045-1.052-8.049-1.377-12.106A4.582,4.582,0,0,0,81.092,30.1a8.051,8.051,0,0,0-5.1.485c-4.026,1.647-6.611,6.82-4.941,10.989a2.062,2.062,0,0,0,2.46,1.4A2.014,2.014,0,0,0,74.91,40.511Z"/><path class="d" d="M7.442,60.336c-.639-1.061-1.084-1.813-1.221-2.068,2.28-1.545,4.326-2.893,6.605-4.208.4.645,1.4,2.18,2.7,4.163l.106-.079c.9-.56,4.369-2.628,5.981-3.577l-.013-.026c-.88-1.8-1.85-3.66-2.33-4.67,1.421-.869,4.94-2.78,6.42-3.57,3.15,5.04,11.06,17.75,13.58,21.87a.2.2,0,0,1,.036.018q-6.22,3.761-12.624,7.194-6.51,3.495-13.189,6.662c-.02.009-.205.1-.522.251C9.568,77.4,4.261,69.59,2.017,66.249c1.652-1.234,4.03-2.811,6.141-4.073l.308-.147C8.09,61.409,7.744,60.838,7.442,60.336Z"/><path class="c" d="M16.062,83.232C11.872,77.294,7.8,71.272,3.744,65.24l-.717,2.736C5,66.513,7.063,65.169,9.168,63.9c2.2-1.325.2-4.785-2.019-3.454-2.105,1.266-4.168,2.61-6.141,4.073A2.037,2.037,0,0,0,.29,67.259C4.343,73.29,8.418,79.313,12.608,85.251a2.054,2.054,0,0,0,2.736.717,2.016,2.016,0,0,0,.718-2.736Z"/><path class="c" d="M28.882,74.709c-4.888-7.131-9.733-14.335-14.329-21.658a2.035,2.035,0,0,0-2.736-.718c-2.26,1.312-4.442,2.744-6.6,4.208a2.05,2.05,0,0,0-.718,2.737c1.338,2.464,2.891,4.828,4.355,7.217,1.915,3.123,3.828,6.248,5.8,9.335,1.382,2.162,4.845.158,3.454-2.019-1.973-3.087-3.886-6.212-5.8-9.335-1.464-2.389-3.017-4.753-4.355-7.217L7.231,60c2.163-1.464,4.345-2.9,6.6-4.208L11.1,55.069C15.7,62.393,20.54,69.6,25.428,76.727a2.052,2.052,0,0,0,2.737.718,2.018,2.018,0,0,0,.717-2.736Z"/><path class="c" d="M35.545,70.368C31.773,64.6,28.112,58.737,24.181,53.074a2.075,2.075,0,0,0-2.737-.717,31.257,31.257,0,0,0-3,1.767c-1.274.759-2.552,1.514-3.815,2.293-2.187,1.349-.18,4.81,2.019,3.454,1.263-.779,2.541-1.534,3.815-2.293a31.257,31.257,0,0,1,3.005-1.767l-2.736-.718c3.932,5.663,7.592,11.525,11.364,17.294,1.4,2.146,4.868.144,3.454-2.019Z"/><path class="c" d="M23.329,53.531c-.767-1.561-1.577-3.1-2.33-4.67L20.281,51.6c2.093-1.267,4.263-2.417,6.42-3.57l-2.736-.718c4.547,7.277,9.1,14.551,13.58,21.87,1.341,2.192,4.8.185,3.454-2.019-4.479-7.319-9.033-14.593-13.58-21.87a2.046,2.046,0,0,0-2.737-.717c-2.157,1.153-4.327,2.3-6.42,3.57a2.052,2.052,0,0,0-.717,2.736c.753,1.568,1.563,3.109,2.33,4.67,1.134,2.311,4.585.286,3.454-2.019Z"/><path class="b" d="M13.5,82.045q6.677-3.166,13.189-6.662Q34.1,71.4,41.29,66.994a2.111,2.111,0,0,1,2.918.714C50.081,77.591,55.481,87.544,61.1,97.465a2.109,2.109,0,0,1-.877,2.92,174.511,174.511,0,0,1-29.307,11.83,3.11,3.11,0,0,1-2.377-.119,3.492,3.492,0,0,1-1.115-1.274q-7.852-12.7-14.918-25.857a2.118,2.118,0,0,1,.968-2.911Z"/><path class="c" d="M14.505,83.771Q26.831,77.916,38.59,70.958q1.346-.8,2.682-1.61c.236-.143.867-.714,1.18-.684-.086-.008.178.3.28.477,1.146,1.985,2.323,3.952,3.466,5.939,2.315,4.022,4.586,8.069,6.85,12.119q1.666,2.979,3.332,5.958.835,1.491,1.673,2.978.419.746.84,1.489c.118.21.226.438.36.638.2.291.059.356.143.172-.194.428-1.048.665-1.47.876q-1.421.711-2.853,1.4-2.771,1.324-5.583,2.558-5.772,2.535-11.718,4.647c-1.93.682-3.873,1.327-5.833,1.919-.582.176-1.728.773-2.315.55s-1.171-1.7-1.482-2.207Q24.115,101.6,20.3,94.91q-1.85-3.242-3.648-6.512-.928-1.687-1.844-3.383c-.288-.533-.9-.961-.3-1.244,2.324-1.1.3-4.551-2.019-3.453a4.128,4.128,0,0,0-1.837,5.36c1.025,2.277,2.382,4.453,3.6,6.635q3.861,6.945,7.948,13.761a54.233,54.233,0,0,0,4.2,6.738c1.649,2,4.006,1.653,6.221.992,4.569-1.362,9.056-3,13.473-4.8q6.851-2.779,13.486-6.059c1.954-.972,3.893-2.083,3.8-4.588a7.127,7.127,0,0,0-1.265-3.182q-1.02-1.806-2.033-3.616c-2.624-4.681-5.229-9.373-7.874-14.042q-1.992-3.515-4.021-7.008c-1.139-1.956-2.215-4.947-4.592-5.65-2.676-.792-5.277,1.613-7.429,2.885q-3.834,2.263-7.734,4.412Q20.58,76.48,12.486,80.318C10.162,81.422,12.189,84.871,14.505,83.771Z"/><path class="c" d="M40.416,80.37q3.471,6.59,6.718,13.292a2.018,2.018,0,0,0,2.736.717,2.041,2.041,0,0,0,.718-2.736q-3.247-6.7-6.718-13.292a2,2,0,0,0-3.454,2.019Z"/><path class="e" d="M79.779,141.035a5.189,5.189,0,0,1-.4-1.05c-1.439-5.494-.73-13.37,1.233-19.73a66.978,66.978,0,0,1,6.913-13.612c8.56-12.535,13.98-21.36,26.1-30.5,4.178-3.15,10.049-5.517,13.953-4.182a8.082,8.082,0,0,1,1.4.758c-10.943,9.128-23.938,22.127-31,32.835a66.675,66.675,0,0,0-11.341,39.05c-1.623-.058-2.389.091-3.918-.73A6.816,6.816,0,0,1,79.779,141.035Z"/><path class="c" d="M86.911,142.617a6.7,6.7,0,0,1-3.493-.644,4.4,4.4,0,0,1-2.2-2.859,28.747,28.747,0,0,1-.453-9.3,40.2,40.2,0,0,1,1.919-9.474A49.051,49.051,0,0,1,86,113.14a147.861,147.861,0,0,1,9.837-15.109,97.748,97.748,0,0,1,11.018-13.416c4.344-4.306,9.428-9.063,15.5-10.644a9.456,9.456,0,0,1,3.682-.341,5.231,5.231,0,0,1,2.595,1.363c2.077,1.734,2.92,4.037,1.53,6.513-1.476,2.629-4.035,4.737-6.167,6.824a41.091,41.091,0,0,0-6.081,6.876c-3.272,5.08-4.258,11.189-5.334,17.02a64.332,64.332,0,0,1-2.295,9.523,25.793,25.793,0,0,1-5.422,8.915,74.477,74.477,0,0,1-8.324,7.745c-2.766,2.227-5.979,4.143-9.621,4.208-2.571.046-2.579,4.046,0,4,7.536-.134,13.479-5.925,18.565-10.859a35.182,35.182,0,0,0,6.768-8.548,37.578,37.578,0,0,0,3.3-9.456c1.386-6.2,1.806-12.9,4.734-18.635,3.085-6.043,9.374-9.468,13.023-15.086a8.721,8.721,0,0,0,.288-9.482,10.6,10.6,0,0,0-7.233-4.88c-7.036-.856-13.534,4.283-18.5,8.578A87.65,87.65,0,0,0,94.759,92.7c-1.96,2.655-3.825,5.378-5.68,8.107s-3.8,5.445-5.441,8.327a72,72,0,0,0-4.273,8.719,39.515,39.515,0,0,0-2.327,9.564,38.612,38.612,0,0,0-.047,10.795,10.313,10.313,0,0,0,1.578,4.66,9.394,9.394,0,0,0,3.834,3.058,11.8,11.8,0,0,0,4.508.686C89.485,146.717,89.481,142.717,86.911,142.617Z"/><path class="c" d="M88.6,141.984a64.759,64.759,0,0,1,8.646-31.411c5.149-9.036,12.315-16.852,19.66-24.142q6.479-6.429,13.483-12.3c1.978-1.653-.865-4.47-2.828-2.829A195.845,195.845,0,0,0,103.7,94.768c-7.052,8.323-12.813,17.5-16.083,27.973a66.634,66.634,0,0,0-3.01,19.243c-.023,2.575,3.977,2.577,4,0Z"/><path class="c" d="M79.711,120.634a11.934,11.934,0,0,0,1.032,2.386c.5.971,1.026,1.923,1.566,2.869.906,1.591,1.831,3.176,2.813,4.722a2,2,0,0,0,3.454-2.019c-.962-1.514-1.868-3.066-2.757-4.623-.536-.937-1.063-1.881-1.556-2.841-.2-.38-.382-.765-.563-1.153-.076-.164-.15-.477.077.191-.026-.077-.062-.151-.09-.227a3.669,3.669,0,0,1-.119-.368,2,2,0,0,0-3.857,1.063Z"/><path class="c" d="M84.19,114.154c1,2.221,2.109,4.387,3.105,6.608a2,2,0,0,0,1.195.919,2,2,0,0,0,2.461-1.4,2.3,2.3,0,0,0-.2-1.541c-1-2.221-2.11-4.387-3.106-6.608a2,2,0,0,0-1.2-.919,2.042,2.042,0,0,0-1.541.2,2.019,2.019,0,0,0-.919,1.195,2.3,2.3,0,0,0,.2,1.542Z"/><path class="e" d="M194.209,194.852c-4.057,53.136-7.051,103.086-10.722,147.308,0,13.429-40.06,20.113-70.529,20.094-30.468.019-70.529-6.665-70.529-20.094-3.5-43.838-7.277-95.061-10.722-147.642v-1.634c0,15.47,46.151,23.17,81.251,23.148,35.1.022,81.251-7.678,81.251-23.148Z"/><path class="c" d="M29.707,192.884c.093,9.137,11.36,13.735,18.5,16.265,12.842,4.55,26.679,6.492,40.19,7.739a266.79,266.79,0,0,0,43.589.453c14-1,28.224-2.807,41.7-6.878a58.613,58.613,0,0,0,14.6-6.215c3.253-2.072,6.485-4.893,7.562-8.744a10.213,10.213,0,0,0,.36-2.62c.026-2.575-3.974-2.577-4,0,0,.184-.012.367-.02.551-.006.128-.1.666-.011.167a8.861,8.861,0,0,1-.253,1.065c-.055.176-.118.35-.183.522-.08.214.042-.09.05-.108-.043.1-.086.2-.136.293-.179.342-.356.681-.564,1.008-.107.168-.22.331-.335.494-.255.363.049-.039-.166.221-.273.328-.556.646-.855.951a20.04,20.04,0,0,1-1.851,1.636,44.621,44.621,0,0,1-12.642,6.09c-12.433,4.156-25.664,6.045-38.679,7.2a266.716,266.716,0,0,1-41.875.421c-13.4-.923-26.94-2.643-39.886-6.345a60.709,60.709,0,0,1-14.176-5.658,19.419,19.419,0,0,1-4.447-3.344,7.8,7.8,0,0,1-1.356-1.666c-.208-.327-.385-.665-.564-1.008-.078-.149-.186-.44-.058-.11-.076-.2-.148-.4-.211-.6a8.861,8.861,0,0,1-.253-1.065c.063.353,0,.112-.005-.089s-.024-.419-.026-.629c-.026-2.573-4.026-2.579-4,0Z"/><path class="c" d="M48.275,228.818a126.168,126.168,0,0,0,22.8,5.767,246.108,246.108,0,0,0,27.012,3.01,251.541,251.541,0,0,0,55.276-2.525c8.825-1.455,17.657-3.56,25.794-7.355a2.016,2.016,0,0,0,.718-2.736,2.046,2.046,0,0,0-2.737-.718c-6.92,3.228-14.479,5.076-21.961,6.451a206.4,206.4,0,0,1-26.871,2.945,261.1,261.1,0,0,1-53.3-2.463,131.773,131.773,0,0,1-25.671-6.233c-2.416-.9-3.459,2.967-1.063,3.857Z"/><rect class="m" x="105.444" y="248.541" width="15.029" height="97.66" rx="7.514"/><rect class="m" x="102.295" y="289.857" width="97.66" height="15.029" rx="7.514" transform="translate(-152.337 435.861) rotate(-87.591)"/><rect class="m" x="67.277" y="248.541" width="15.029" height="97.66" rx="7.514" transform="translate(-12.435 3.407) rotate(-2.409)"/><path class="c" d="M118.472,256.055v79.19c0,1.132.019,2.267,0,3.4-.084,5.016-6.419,7.524-9.741,3.59-1.3-1.538-1.287-3.295-1.287-5.148v-76c0-1.547-.005-3.094,0-4.64.01-3.5,2.825-6.495,6.5-5.824a5.58,5.58,0,0,1,4.532,5.431c.058,2.57,4.058,2.58,4,0-.16-7.149-7.995-11.917-14.316-8.215-3.279,1.92-4.712,5.345-4.712,9v68.366c0,4.427-.031,8.856,0,13.284a9.516,9.516,0,1,0,19.028-.014c.031-4.487,0-8.975,0-13.461V256.055c0-2.573-4-2.578-4,0Z"/><path class="c" d="M143.88,338.334l.43-10.208.988-23.494,1.111-26.409.8-19.008c.048-1.132.075-2.266.143-3.4a5.565,5.565,0,0,1,9.879-3.106c1.248,1.613,1.15,3.417,1.071,5.3l-.269,6.4-.943,22.406-1.125,26.727-.858,20.394c-.065,1.545-.125,3.091-.195,4.636a5.521,5.521,0,1,1-11.032-.24c.051-2.575-3.949-2.575-4,0a9.614,9.614,0,0,0,14.034,8.685c3.365-1.785,4.861-5.2,5.015-8.84l.658-15.638,1.124-26.726,1.092-25.941c.186-4.424.4-8.848.558-13.273a9.515,9.515,0,1,0-19.016-.617c-.219,4.481-.377,8.966-.566,13.449l-1.094,26-1.122,26.679-.651,15.463-.032.759C139.772,340.908,143.772,340.9,143.88,338.334Z"/><path class="c" d="M86.036,338.334l-.463-10.99-1.054-25.058-1.147-27.255-.739-17.579c-.1-2.314-.277-4.545-1.618-6.565-3.879-5.843-12.989-5.618-16.33.679a12.242,12.242,0,0,0-1.064,6.6l.289,6.88,1.008,23.964,1.163,27.626.817,19.415c.043,1.029.06,2.063.134,3.091.505,7.015,8.46,11.493,14.568,7.562a9.685,9.685,0,0,0,4.436-8.366c-.05-2.57-4.051-2.579-4,0a5.522,5.522,0,0,1-10.6,2.458,11.655,11.655,0,0,1-.506-4L70.2,319.5l-1.1-26.046-1.031-24.514c-.173-4.115-.376-8.23-.52-12.347-.146-4.181,4.063-7.435,8.008-5.411,2.3,1.181,2.949,3.389,3.048,5.742l.652,15.487,1.079,25.648L81.4,323.216l.607,14.436.029.682C82.144,340.9,86.144,340.912,86.036,338.334Z"/><path class="c" d="M192.209,194.852q-2.052,26.893-3.894,53.8-1.774,25.448-3.564,50.894-.873,12.136-1.8,24.268-.448,5.835-.918,11.669-.235,2.924-.477,5.847c-.042.512-.057,1.026-.106,1.537,0-.016.064-.208-.04.163-.056.2-.1.4-.159.607-.044.152-.1.3-.157.448.141-.377-.02.046-.091.185a10.768,10.768,0,0,1-.589,1c-.062.094-.371.509-.149.225-.129.165-.266.324-.4.481-.291.328-.6.64-.92.939a21.736,21.736,0,0,1-4.769,3.194,66.294,66.294,0,0,1-15.219,5.246,193.9,193.9,0,0,1-40.507,4.826,218.76,218.76,0,0,1-41.114-2.745,120.425,120.425,0,0,1-18.206-4.292A51.308,51.308,0,0,1,52.3,350.4a25.151,25.151,0,0,1-4.96-3.149c-.337-.3-.664-.6-.973-.928q-.189-.2-.371-.408c-.087-.1-.464-.582-.245-.286a9.5,9.5,0,0,1-.6-.922c-.1-.166-.18-.337-.269-.507-.037-.072-.069-.147-.1-.22-.1-.223.11.321-.008-.041-.106-.326-.2-.649-.276-.983-.109-.468-.006.191-.032-.164-.013-.184-.017-.367-.028-.55-.119-1.908-.3-3.814-.45-5.72q-.949-11.985-1.87-23.973-1.952-25.428-3.782-50.865-1.935-26.877-3.734-53.761-.447-6.7-.887-13.4c-.167-2.555-4.169-2.574-4,0q1.816,27.726,3.783,55.44,1.87,26.388,3.871,52.766.942,12.435,1.916,24.869.465,5.931.936,11.861c.186,2.335.162,4.62,1.21,6.763,1.769,3.618,5.594,6.027,9.083,7.747a75.189,75.189,0,0,0,16.216,5.449,202.21,202.21,0,0,0,41.859,4.8,222.757,222.757,0,0,0,42.146-3.095,113.721,113.721,0,0,0,18.253-4.494c4.475-1.566,9.093-3.515,12.646-6.742a12.4,12.4,0,0,0,3.267-4.583c.886-2.246.744-4.936.937-7.3q.981-12.06,1.874-24.127,1.9-25.536,3.628-51.086,1.886-27.156,3.853-54.306.5-6.815,1.024-13.627c.2-2.568-3.805-2.555-4,0Z"/></svg>