<svg xmlns="http://www.w3.org/2000/svg" shape-rendering="geometricPrecision" text-rendering="geometricPrecision" image-rendering="optimizeQuality" fill-rule="evenodd" clip-rule="evenodd" viewBox="0 0 512 475.524"><path fill="#BD2122" d="M308.872 288.993c24.349 32.256 130.224 22.481 173.742 70.421C504.015 382.999 512 410.212 512 468.548c0 3.849-3.122 6.976-6.971 6.976H6.971c-3.849 0-6.971-3.127-6.971-6.976 0-56.802 7.567-84.046 27.739-107.798 49.545-58.383 148.701-27.81 174.243-71.757h106.89z"/><path fill="#DA9C69" d="M119.573 327.784c92.702 88.384 183.067 91.504 275.277-2.29-47.114 2.883-102.058-12.878-88.211-55.622l-.015-.217c-27.444 23.193-69.286 26.568-98.523 4.357-.333 43.832-48.093 57.748-88.528 53.772z"/><path fill="#DEA678" d="M119.557 327.784c45.885 43.749 92.208 66.606 137.453 67.168v-106c-16.851.505-34.825-4.244-48.909-14.948-.328 43.845-48.101 57.761-88.544 53.78z"/><path fill="#2C2C2C" d="M65.103 300.749c43.118-3.502 58.969-48.297 64.28-94.745 8.092-71.107-3.133-162.594 82.446-197.184 67.956-27.481 155.832 9.513 165.417 107.416-.4 66.529 18.309 179.679 77.856 184.513-13.189 37.138-173.831 38.332-147.829-32.799-31.904 21.986-64.107 23.926-99.257 2.101 4.231 76.55-129.724 67.836-142.913 30.698z"/><path fill="#E9BE79" d="M312.975 263.652c37.824-41.834 43.569-83.941 32.789-137.677-26.004-12.053-43.013-38.547-51.727-78.355-10.411 75.787-103.484 72.534-126.887 86.323 0 44.47-4.604 76.221 21.159 117.085 3.286 5.218 6.492 10.252 10.366 14.429 31.272 33.72 84.741 29.498 114.3-1.805z"/><path fill="#F2CD8C" d="M257.011 103.678c-32.047 19.62-74.999 21.509-89.864 30.266 0 6.379-.157 12.414-.307 18.19-1.057 39.017 1.828 67.744 21.467 98.898 3.288 5.214 6.499 10.248 10.368 14.424 15.77 17.001 37.188 24.358 58.336 23.458V103.678z"/></svg>