<?xml version="1.0" standalone="no"?>
<!DOCTYPE svg PUBLIC "-//W3C//DTD SVG 20010904//EN"
 "http://www.w3.org/TR/2001/REC-SVG-20010904/DTD/svg10.dtd">
<svg version="1.0" xmlns="http://www.w3.org/2000/svg"
 width="700.000000pt" height="700.000000pt" viewBox="0 0 700.000000 700.000000"
 preserveAspectRatio="xMidYMid meet">
<metadata>
Created by potrace 1.14, written by Peter Selinger 2001-2017
</metadata>
<g transform="translate(0.000000,700.000000) scale(0.100000,-0.100000)"
fill="#000000" stroke="none">
<path d="M5812 5961 c-55 -17 -52 -14 -466 -351 -112 -91 -284 -230 -382 -310
-99 -80 -186 -150 -194 -157 -8 -7 -51 -41 -95 -77 l-80 -65 -48 54 c-41 46
-54 55 -83 55 -39 0 -61 -27 -127 -149 -32 -61 -41 -71 -65 -72 -15 0 -38 -3
-52 -5 -14 -2 -74 -13 -135 -24 -117 -20 -141 -25 -242 -46 -652 -132 -1271
-391 -1570 -657 -211 -187 -306 -368 -307 -582 0 -33 -4 -62 -7 -65 -4 -3
-268 -5 -586 -4 -624 0 -626 0 -639 -52 -4 -14 -4 -69 0 -122 7 -107 11 -139
32 -262 16 -88 82 -298 126 -400 147 -339 371 -675 667 -1005 214 -237 637
-615 860 -768 l53 -37 1030 0 1030 0 52 37 c104 76 324 251 372 297 6 6 44 40
85 76 158 138 406 396 550 570 344 416 583 883 648 1265 6 33 13 74 16 90 3
17 8 82 11 145 6 106 5 117 -14 140 l-20 25 -1066 0 -1065 0 32 34 c18 19 43
46 57 60 46 47 155 175 216 251 32 41 64 80 69 87 23 28 33 42 98 140 37 56
87 144 112 194 25 51 46 94 48 95 2 2 21 6 43 10 138 21 190 35 207 55 26 32
21 67 -17 114 l-35 42 32 30 c18 16 55 47 82 69 28 21 52 41 55 44 5 5 75 61
285 230 44 35 82 67 85 70 3 3 50 41 105 85 55 44 109 88 120 97 11 9 76 62
145 118 240 194 256 209 284 261 56 102 33 234 -56 315 -74 66 -160 85 -256
55z m131 -143 c62 -33 84 -97 52 -158 -8 -16 -127 -119 -263 -230 -137 -110
-262 -211 -278 -224 -72 -60 -274 -224 -438 -356 l-178 -144 -32 35 c-45 50
-110 131 -114 139 -3 9 8 18 233 201 83 66 168 135 189 152 21 18 141 115 265
215 124 101 244 198 265 215 22 18 44 37 50 43 6 5 45 36 86 67 78 60 116 70
163 45z m-1398 -990 c33 -40 98 -120 145 -178 46 -58 89 -108 94 -112 9 -6
-13 -14 -60 -20 -15 -2 -37 17 -83 72 -87 105 -91 110 -136 165 -22 28 -45 56
-52 63 -7 7 -13 16 -13 18 0 12 31 64 38 64 4 0 35 -33 67 -72z m-550 -138
c-11 -5 -90 -33 -175 -64 -682 -241 -1139 -483 -1391 -735 -96 -96 -154 -182
-200 -296 -34 -84 -38 -90 -65 -90 -51 -1 -54 3 -54 69 0 64 25 168 55 227 63
125 237 293 408 395 27 16 63 37 80 48 68 40 248 126 367 174 252 102 548 189
889 262 97 20 115 22 86 10z m278 -204 c-96 -89 -128 -119 -239 -221 -54 -49
-108 -99 -119 -110 -12 -11 -55 -49 -96 -85 -74 -65 -132 -116 -153 -135 -6
-5 -40 -35 -76 -65 -36 -30 -71 -61 -78 -68 -8 -7 -30 -25 -50 -40 -21 -15
-39 -29 -42 -32 -18 -19 -158 -126 -223 -171 l-78 -54 -190 0 -190 0 58 55
c85 80 140 129 208 183 33 26 68 54 77 62 118 97 455 316 688 448 130 73 558
297 568 297 1 0 -28 -29 -65 -64z m-534 -84 c-466 -259 -798 -498 -1085 -780
l-122 -119 -86 2 c-47 1 -88 4 -91 7 -3 3 14 43 37 89 35 68 63 104 148 190
91 92 233 199 335 255 11 6 54 31 95 54 67 38 354 180 365 180 2 0 28 11 57
24 86 39 515 205 532 206 6 0 -78 -49 -185 -108z m830 -38 c-42 -91 -123 -220
-213 -339 -33 -44 -63 -82 -66 -85 -3 -3 -16 -18 -28 -34 -60 -78 -194 -226
-308 -341 l-61 -61 -71 0 c-40 0 -72 3 -72 7 0 3 30 32 68 65 67 58 315 304
382 379 70 79 247 292 314 378 38 48 70 86 73 84 2 -3 -6 -27 -18 -53z m-252
-44 c-35 -49 -243 -287 -336 -384 -171 -177 -282 -276 -418 -375 -61 -45 -81
-54 -121 -56 -26 -1 -51 0 -55 2 -4 3 14 21 40 41 81 61 333 273 458 386 39
35 97 87 130 116 33 30 65 59 71 64 6 6 53 49 105 96 51 47 102 95 113 108 24
27 32 29 13 2z m1800 -1033 c-29 -339 -174 -701 -435 -1082 -64 -93 -157 -217
-197 -262 -5 -6 -50 -59 -100 -117 -82 -96 -335 -353 -445 -451 -93 -84 -239
-204 -344 -285 l-110 -84 -985 -1 -986 0 -110 85 c-385 296 -720 628 -986 975
-311 406 -507 853 -535 1217 l-6 76 2622 0 2623 0 -6 -71z"/>
<path d="M1554 3189 c-12 -6 -26 -21 -31 -33 -18 -42 -5 -193 33 -371 54 -262
244 -609 483 -885 100 -116 287 -297 401 -390 30 -25 57 -47 60 -50 3 -4 44
-34 91 -68 53 -38 96 -62 112 -62 35 0 67 36 67 77 0 29 -9 39 -102 110 -117
88 -126 96 -257 214 -413 372 -688 826 -737 1214 -11 82 -11 88 -13 146 -1 63
-20 95 -61 103 -14 3 -35 0 -46 -5z"/>
</g>
</svg>
